<?xml version="1.0" encoding="UTF-8" standalone="no"?>
<svg
   xmlns:dc="http://purl.org/dc/elements/1.1/"
   xmlns:cc="http://creativecommons.org/ns#"
   xmlns:rdf="http://www.w3.org/1999/02/22-rdf-syntax-ns#"
   xmlns:svg="http://www.w3.org/2000/svg"
   xmlns="http://www.w3.org/2000/svg"
   version="1.1"
   id="svg9035"
   viewBox="0 0 547.08616 521.9724"
   height="147.31221mm"
   width="154.39987mm">
  <defs
     id="defs9037">
    <clipPath
       id="presentation_clip_path"
       clipPathUnits="userSpaceOnUse">
      <rect
         x="0"
         y="0"
         width="29700"
         height="21000"
         id="rect10139" />
    </clipPath>
    <clipPath
       id="presentation_clip_path_shrink"
       clipPathUnits="userSpaceOnUse">
      <rect
         x="29"
         y="21"
         width="29641"
         height="20958"
         id="rect10142" />
    </clipPath>
  </defs>
  <metadata
     id="metadata9040">
    <rdf:RDF>
      <cc:Work
         rdf:about="">
        <dc:format>image/svg+xml</dc:format>
        <dc:type
           rdf:resource="http://purl.org/dc/dcmitype/StillImage" />
        <dc:title></dc:title>
      </cc:Work>
    </rdf:RDF>
  </metadata>
  <g
     transform="translate(-59.771275,-109.31211)"
     id="layer1">
    <g
       transform="matrix(0.03543307,0,0,0.03543307,-115.27244,56.839671)"
       id="g10651"
       style="fill-rule:evenodd;stroke-width:28.22200012;stroke-linejoin:round">
      <g
         id="g10249">
        <g
           id="id2"
           class="Master_Slide">
          <g
             id="bg-id2"
             class="Background" />
          <g
             id="bo-id2"
             class="BackgroundObjects" />
        </g>
      </g>
      <g
         id="g10256">
        <g
           id="container-id1">
          <g
             clip-path="url(#presentation_clip_path)"
             class="Slide"
             id="id1">
            <g
               id="g10260"
               class="Page">
              <g
                 id="g10288"
                 class="com.sun.star.drawing.CustomShape">
                <g
                   id="id5">
                  <rect
                     id="rect10291"
                     height="14697"
                     width="14698"
                     y="1500"
                     x="5671"
                     class="BoundingBox"
                     style="fill:none;stroke:none" />
                  <path
                     id="path10293"
                     d="m 7731,3747 134,-135 138,-132 140,-128 144,-125 148,-120 150,-117 153,-113 156,-109 159,-105 162,-101 164,-96 167,-92 169,-88 171,-83 173,-79 175,-75 177,-70 179,-65 181,-61 182,-55 183,-52 185,-46 186,-42 186,-36 188,-32 189,-27 189,-23 189,-17 190,-12 191,-8 190,-2 0,7347 -5288,-5101 z m -2059,-2246 0,0 z m 14695,14694 0,0 z"
                     style="fill:#dbeefc;stroke:none" />
                  <path
                     id="path10295"
                     d="m 7731,3747 134,-135 138,-132 140,-128 144,-125 148,-120 150,-117 153,-113 156,-109 159,-105 162,-101 164,-96 167,-92 169,-88 171,-83 173,-79 175,-75 177,-70 179,-65 181,-61 182,-55 183,-52 185,-46 186,-42 186,-36 188,-32 189,-27 189,-23 189,-17 190,-12 191,-8 190,-2 0,7347 -5288,-5101 z"
                     style="fill:none;stroke:#83b0e9" />
                  <path
                     id="path10297"
                     d="m 5672,1501 0,0 z"
                     style="fill:none;stroke:#83b0e9" />
                  <path
                     id="path10299"
                     d="m 20367,16195 0,0 z"
                     style="fill:none;stroke:#83b0e9" />
                </g>
              </g>
              <g
                 id="g10301"
                 class="com.sun.star.drawing.CustomShape">
                <g
                   id="id6">
                  <rect
                     id="rect10304"
                     height="14697"
                     width="14698"
                     y="1500"
                     x="5671"
                     class="BoundingBox"
                     style="fill:none;stroke:none" />
                  <path
                     id="path10306"
                     d="m 5672,8865 2,-192 7,-192 12,-192 17,-192 23,-191 27,-190 32,-190 37,-189 42,-187 47,-187 52,-185 56,-184 62,-182 66,-180 71,-179 75,-177 80,-175 85,-173 89,-170 93,-168 98,-165 102,-163 107,-160 111,-158 114,-154 119,-151 122,-149 127,-144 130,-142 134,-138 5208,5182 -7347,17 z m 0,-7364 0,0 z m 14695,14694 0,0 z"
                     style="fill:#dbeefc;stroke:none" />
                  <path
                     id="path10308"
                     d="m 5672,8865 2,-192 7,-192 12,-192 17,-192 23,-191 27,-190 32,-190 37,-189 42,-187 47,-187 52,-185 56,-184 62,-182 66,-180 71,-179 75,-177 80,-175 85,-173 89,-170 93,-168 98,-165 102,-163 107,-160 111,-158 114,-154 119,-151 122,-149 127,-144 130,-142 134,-138 5208,5182 -7347,17 z"
                     style="fill:none;stroke:#83b0e9" />
                  <path
                     id="path10310"
                     d="m 5672,1501 0,0 z"
                     style="fill:none;stroke:#83b0e9" />
                  <path
                     id="path10312"
                     d="m 20367,16195 0,0 z"
                     style="fill:none;stroke:#83b0e9" />
                </g>
              </g>
              <g
                 id="g10314"
                 class="com.sun.star.drawing.CustomShape">
                <g
                   id="id7">
                  <rect
                     id="rect10317"
                     height="14697"
                     width="14698"
                     y="1500"
                     x="5671"
                     class="BoundingBox"
                     style="fill:none;stroke:none" />
                  <path
                     id="path10319"
                     d="m 13011,1501 190,2 189,7 189,12 189,17 188,22 188,27 187,31 186,36 185,41 184,46 183,51 181,55 180,60 178,64 177,70 175,73 172,78 171,83 169,87 166,91 164,96 161,99 158,104 156,108 153,112 151,116 147,119 144,124 140,127 138,130 -5131,5259 -8,-7347 z m -7339,0 0,0 z m 14695,14694 0,0 z"
                     style="fill:#dbeefc;stroke:none" />
                  <path
                     id="path10321"
                     d="m 13011,1501 190,2 189,7 189,12 189,17 188,22 188,27 187,31 186,36 185,41 184,46 183,51 181,55 180,60 178,64 177,70 175,73 172,78 171,83 169,87 166,91 164,96 161,99 158,104 156,108 153,112 151,116 147,119 144,124 140,127 138,130 -5131,5259 -8,-7347 z"
                     style="fill:none;stroke:#83b0e9" />
                  <path
                     id="path10323"
                     d="m 5672,1501 0,0 z"
                     style="fill:none;stroke:#83b0e9" />
                  <path
                     id="path10325"
                     d="m 20367,16195 0,0 z"
                     style="fill:none;stroke:#83b0e9" />
                </g>
              </g>
              <g
                 id="g10327"
                 class="com.sun.star.drawing.CustomShape">
                <g
                   id="id8">
                  <rect
                     id="rect10330"
                     height="14697"
                     width="14698"
                     y="1500"
                     x="5671"
                     class="BoundingBox"
                     style="fill:none;stroke:none" />
                  <path
                     id="path10332"
                     d="m 18139,3578 133,133 130,137 126,139 123,143 119,146 115,149 112,152 107,154 104,158 99,160 96,162 91,165 87,167 82,169 78,172 74,173 69,175 65,177 61,178 55,180 51,181 47,183 41,184 37,184 32,186 28,186 22,187 18,188 13,188 9,188 3,188 -7347,38 5120,-5270 z M 5672,1501 l 0,0 z m 14695,14694 0,0 z"
                     style="fill:#dbeefc;stroke:none" />
                  <path
                     id="path10334"
                     d="m 18139,3578 133,133 130,137 126,139 123,143 119,146 115,149 112,152 107,154 104,158 99,160 96,162 91,165 87,167 82,169 78,172 74,173 69,175 65,177 61,178 55,180 51,181 47,183 41,184 37,184 32,186 28,186 22,187 18,188 13,188 9,188 3,188 -7347,38 5120,-5270 z"
                     style="fill:none;stroke:#83b0e9" />
                  <path
                     id="path10336"
                     d="m 5672,1501 0,0 z"
                     style="fill:none;stroke:#83b0e9" />
                  <path
                     id="path10338"
                     d="m 20367,16195 0,0 z"
                     style="fill:none;stroke:#83b0e9" />
                </g>
              </g>
              <g
                 id="g10340"
                 class="com.sun.star.drawing.CustomShape">
                <g
                   id="id9">
                  <rect
                     id="rect10343"
                     height="14697"
                     width="14698"
                     y="1494"
                     x="5671"
                     class="BoundingBox"
                     style="fill:none;stroke:none" />
                  <path
                     id="path10345"
                     d="m 7731,13943 134,135 138,132 140,128 144,125 148,120 150,117 153,113 156,109 159,105 162,101 164,96 167,92 169,88 171,83 173,79 175,75 177,70 179,65 181,61 182,55 183,52 185,46 186,42 186,36 188,32 189,27 189,23 189,17 190,12 191,8 190,2 0,-7347 -5288,5101 z m -2059,2246 0,0 z m 14695,-14694 0,0 z"
                     style="fill:#dbeefc;stroke:none" />
                  <path
                     id="path10347"
                     d="m 7731,13943 134,135 138,132 140,128 144,125 148,120 150,117 153,113 156,109 159,105 162,101 164,96 167,92 169,88 171,83 173,79 175,75 177,70 179,65 181,61 182,55 183,52 185,46 186,42 186,36 188,32 189,27 189,23 189,17 190,12 191,8 190,2 0,-7347 -5288,5101 z"
                     style="fill:none;stroke:#83b0e9" />
                  <path
                     id="path10349"
                     d="m 5672,16189 0,0 z"
                     style="fill:none;stroke:#83b0e9" />
                  <path
                     id="path10351"
                     d="m 20367,1495 0,0 z"
                     style="fill:none;stroke:#83b0e9" />
                  <text
                     id="text10353"
                     transform="matrix(-1,0,0,-1,26218,17246)"
                     class="TextShape">
                    <tspan
                       id="tspan10355"
                       font-weight="400"
                       font-size="635px"
                       class="TextParagraph"
                       style="font-weight:400;font-size:635px;font-family:'Liberation Sans', sans-serif">
                      <tspan
                         id="tspan10357"
                         y="8623"
                         x="13109"
                         class="TextPosition">
                        <tspan
                           id="tspan10359"
                           style="fill:#000000;stroke:none" />
                      </tspan>
                    </tspan>
                  </text>
                </g>
              </g>
              <g
                 id="g10361"
                 class="com.sun.star.drawing.CustomShape">
                <g
                   id="id10">
                  <rect
                     id="rect10364"
                     height="14697"
                     width="14698"
                     y="1503"
                     x="5666"
                     class="BoundingBox"
                     style="fill:none;stroke:none" />
                  <path
                     id="path10366"
                     d="m 5667,8834 2,192 7,192 12,192 17,192 23,191 27,190 32,190 37,189 42,187 47,187 52,185 56,184 62,182 66,180 71,179 75,177 80,175 85,173 89,170 93,168 98,165 102,163 107,160 111,158 114,154 119,151 122,149 127,144 130,142 134,138 5208,-5182 -7347,-17 z m 0,7364 0,0 z m 14695,-14694 0,0 z"
                     style="fill:#dbeefc;stroke:none" />
                  <path
                     id="path10368"
                     d="m 5667,8834 2,192 7,192 12,192 17,192 23,191 27,190 32,190 37,189 42,187 47,187 52,185 56,184 62,182 66,180 71,179 75,177 80,175 85,173 89,170 93,168 98,165 102,163 107,160 111,158 114,154 119,151 122,149 127,144 130,142 134,138 5208,-5182 -7347,-17 z"
                     style="fill:none;stroke:#83b0e9" />
                  <path
                     id="path10370"
                     d="m 5667,16198 0,0 z"
                     style="fill:none;stroke:#83b0e9" />
                  <path
                     id="path10372"
                     d="m 20362,1504 0,0 z"
                     style="fill:none;stroke:#83b0e9" />
                </g>
              </g>
              <g
                 id="g10374"
                 class="com.sun.star.drawing.CustomShape">
                <g
                   id="id11">
                  <rect
                     id="rect10377"
                     height="14697"
                     width="14698"
                     y="1494"
                     x="5671"
                     class="BoundingBox"
                     style="fill:none;stroke:none" />
                  <path
                     id="path10379"
                     d="m 13011,16189 190,-2 189,-7 189,-12 189,-17 188,-22 188,-27 187,-31 186,-36 185,-41 184,-46 183,-51 181,-55 180,-60 178,-64 177,-70 175,-73 172,-78 171,-83 169,-87 166,-91 164,-96 161,-99 158,-104 156,-108 153,-112 151,-116 147,-119 144,-124 140,-127 138,-130 -5131,-5259 -8,7347 z m -7339,0 0,0 z m 14695,-14694 0,0 z"
                     style="fill:#dbeefc;stroke:none" />
                  <path
                     id="path10381"
                     d="m 13011,16189 190,-2 189,-7 189,-12 189,-17 188,-22 188,-27 187,-31 186,-36 185,-41 184,-46 183,-51 181,-55 180,-60 178,-64 177,-70 175,-73 172,-78 171,-83 169,-87 166,-91 164,-96 161,-99 158,-104 156,-108 153,-112 151,-116 147,-119 144,-124 140,-127 138,-130 -5131,-5259 -8,7347 z"
                     style="fill:none;stroke:#83b0e9" />
                  <path
                     id="path10383"
                     d="m 5672,16189 0,0 z"
                     style="fill:none;stroke:#83b0e9" />
                  <path
                     id="path10385"
                     d="m 20367,1495 0,0 z"
                     style="fill:none;stroke:#83b0e9" />
                </g>
              </g>
              <g
                 id="g10387"
                 class="com.sun.star.drawing.CustomShape">
                <g
                   id="id12">
                  <rect
                     id="rect10390"
                     height="14697"
                     width="14698"
                     y="1494"
                     x="5671"
                     class="BoundingBox"
                     style="fill:none;stroke:none" />
                  <path
                     id="path10392"
                     d="m 18139,14112 134,-135 132,-138 128,-141 124,-145 120,-147 116,-151 113,-154 108,-157 104,-159 100,-162 96,-164 92,-167 87,-170 83,-171 78,-174 74,-175 69,-178 65,-179 60,-181 55,-182 51,-184 45,-185 41,-186 36,-187 32,-187 26,-189 21,-189 17,-190 12,-190 6,-191 2,-190 -7347,28 5120,5270 z m -12467,2077 0,0 z m 14695,-14694 0,0 z"
                     style="fill:#dbeefc;stroke:none" />
                  <path
                     id="path10394"
                     d="m 18139,14112 134,-135 132,-138 128,-141 124,-145 120,-147 116,-151 113,-154 108,-157 104,-159 100,-162 96,-164 92,-167 87,-170 83,-171 78,-174 74,-175 69,-178 65,-179 60,-181 55,-182 51,-184 45,-185 41,-186 36,-187 32,-187 26,-189 21,-189 17,-190 12,-190 6,-191 2,-190 -7347,28 5120,5270 z"
                     style="fill:none;stroke:#83b0e9" />
                  <path
                     id="path10396"
                     d="m 5672,16189 0,0 z"
                     style="fill:none;stroke:#83b0e9" />
                  <path
                     id="path10398"
                     d="m 20367,1495 0,0 z"
                     style="fill:none;stroke:#83b0e9" />
                </g>
              </g>
              <g
                 id="g10400"
                 class="com.sun.star.drawing.CustomShape">
                <g
                   id="id13">
                  <rect
                     id="rect10403"
                     height="10200"
                     width="10200"
                     y="3751"
                     x="7893"
                     class="BoundingBox"
                     style="fill:none;stroke:none" />
                  <path
                     id="path10405"
                     d="m 12992,3752 c 2890,0 5098,2208 5098,5098 0,2890 -2208,5098 -5098,5098 -2890,0 -5098,-2208 -5098,-5098 0,-2890 2208,-5098 5098,-5098 z m -5098,0 0,0 z m 10197,10197 0,0 z"
                     style="fill:#99cef1;stroke:none" />
                  <path
                     id="path10407"
                     d="m 12992,3752 c 2890,0 5098,2208 5098,5098 0,2890 -2208,5098 -5098,5098 -2890,0 -5098,-2208 -5098,-5098 0,-2890 2208,-5098 5098,-5098 z"
                     style="fill:none;stroke:#65b6ed" />
                  <path
                     id="path10409"
                     d="m 7894,3752 0,0 z"
                     style="fill:none;stroke:#65b6ed" />
                  <path
                     id="path10411"
                     d="m 18091,13949 0,0 z"
                     style="fill:none;stroke:#65b6ed" />
                </g>
              </g>
              <g
                 id="g10413"
                 class="com.sun.star.drawing.TextShape">
                <g
                   id="id14">
                  <rect
                     id="rect10416"
                     height="3952"
                     width="4499"
                     y="2673"
                     x="9297"
                     class="BoundingBox"
                     style="fill:none;stroke:none" />
                  <text
                     id="text10418"
                     class="TextShape">
                    <tspan
                       id="tspan10420"
                       font-weight="400"
                       font-size="635px"
                       class="TextParagraph"
                       style="font-weight:400;font-size:635px;font-family:'Liberation Sans', sans-serif">
                      <tspan
                         id="tspan10422"
                         y="3374"
                         x="10147"
                         class="TextPosition">
                        <tspan
                           id="tspan10424"
                           style="fill:#000000;stroke:none">UC</tspan>
                      </tspan>
                    </tspan>
                  </text>
                </g>
              </g>
              <g
                 id="g10426"
                 class="com.sun.star.drawing.TextShape">
                <g
                   id="id15">
                  <rect
                     id="rect10429"
                     height="3952"
                     width="4499"
                     y="2573"
                     x="14031"
                     class="BoundingBox"
                     style="fill:none;stroke:none" />
                  <text
                     id="text10431"
                     class="TextShape">
                    <tspan
                       id="tspan10433"
                       font-weight="400"
                       font-size="635px"
                       class="TextParagraph"
                       style="font-weight:400;font-size:635px;font-family:'Liberation Sans', sans-serif">
                      <tspan
                         id="tspan10435"
                         y="3274"
                         x="14881"
                         class="TextPosition">
                        <tspan
                           id="tspan10437"
                           style="fill:#000000;stroke:none">UC</tspan>
                      </tspan>
                    </tspan>
                  </text>
                </g>
              </g>
              <g
                 id="g10439"
                 class="com.sun.star.drawing.TextShape">
                <g
                   id="id16">
                  <rect
                     id="rect10442"
                     height="1398"
                     width="2033"
                     y="10906"
                     x="17383"
                     class="BoundingBox"
                     style="fill:none;stroke:none" />
                  <text
                     id="text10444"
                     class="TextShape">
                    <tspan
                       id="tspan10446"
                       font-weight="400"
                       font-size="635px"
                       class="TextParagraph"
                       style="font-weight:400;font-size:635px;font-family:'Liberation Sans', sans-serif">
                      <tspan
                         id="tspan10448"
                         y="11607"
                         x="18233"
                         class="TextPosition">
                        <tspan
                           id="tspan10450"
                           style="fill:#000000;stroke:none">UC</tspan>
                      </tspan>
                    </tspan>
                  </text>
                </g>
              </g>
              <g
                 id="g10452"
                 class="com.sun.star.drawing.TextShape">
                <g
                   id="id17">
                  <rect
                     id="rect10455"
                     height="1217"
                     width="2133"
                     y="14008"
                     x="14108"
                     class="BoundingBox"
                     style="fill:none;stroke:none" />
                  <text
                     id="text10457"
                     class="TextShape">
                    <tspan
                       id="tspan10459"
                       font-weight="400"
                       font-size="635px"
                       class="TextParagraph"
                       style="font-weight:400;font-size:635px;font-family:'Liberation Sans', sans-serif">
                      <tspan
                         id="tspan10461"
                         y="14709"
                         x="14958"
                         class="TextPosition">
                        <tspan
                           id="tspan10463"
                           style="fill:#000000;stroke:none">UC</tspan>
                      </tspan>
                    </tspan>
                  </text>
                </g>
              </g>
              <g
                 id="g10465"
                 class="com.sun.star.drawing.TextShape">
                <g
                   id="id18">
                  <rect
                     id="rect10468"
                     height="3952"
                     width="2313"
                     y="5926"
                     x="17484"
                     class="BoundingBox"
                     style="fill:none;stroke:none" />
                  <text
                     id="text10470"
                     class="TextShape">
                    <tspan
                       id="tspan10472"
                       font-weight="400"
                       font-size="635px"
                       class="TextParagraph"
                       style="font-weight:400;font-size:635px;font-family:'Liberation Sans', sans-serif">
                      <tspan
                         id="tspan10474"
                         y="6627"
                         x="18334"
                         class="TextPosition">
                        <tspan
                           id="tspan10476"
                           style="fill:#000000;stroke:none">UC</tspan>
                      </tspan>
                    </tspan>
                  </text>
                </g>
              </g>
              <g
                 id="g10478"
                 class="com.sun.star.drawing.TextShape">
                <g
                   id="id19">
                  <rect
                     id="rect10481"
                     height="963"
                     width="3207"
                     y="14032"
                     x="9097"
                     class="BoundingBox"
                     style="fill:none;stroke:none" />
                  <text
                     id="text10483"
                     class="TextShape">
                    <tspan
                       id="tspan10485"
                       font-weight="400"
                       font-size="635px"
                       class="TextParagraph"
                       style="font-weight:400;font-size:635px;font-family:'Liberation Sans', sans-serif">
                      <tspan
                         id="tspan10487"
                         y="14733"
                         x="9947"
                         class="TextPosition">
                        <tspan
                           id="tspan10489"
                           style="fill:#000000;stroke:none">UC</tspan>
                      </tspan>
                    </tspan>
                  </text>
                </g>
              </g>
              <g
                 id="g10491"
                 class="com.sun.star.drawing.TextShape">
                <g
                   id="id20">
                  <rect
                     id="rect10494"
                     height="3953"
                     width="4499"
                     y="10637"
                     x="5953"
                     class="BoundingBox"
                     style="fill:none;stroke:none" />
                  <text
                     id="text10496"
                     class="TextShape">
                    <tspan
                       id="tspan10498"
                       font-weight="400"
                       font-size="635px"
                       class="TextParagraph"
                       style="font-weight:400;font-size:635px;font-family:'Liberation Sans', sans-serif">
                      <tspan
                         id="tspan10500"
                         y="11338"
                         x="6803"
                         class="TextPosition">
                        <tspan
                           id="tspan10502"
                           style="fill:#000000;stroke:none">UC</tspan>
                      </tspan>
                    </tspan>
                  </text>
                </g>
              </g>
              <g
                 id="g10504"
                 class="com.sun.star.drawing.TextShape">
                <g
                   id="id21">
                  <rect
                     id="rect10507"
                     height="3952"
                     width="4499"
                     y="5812"
                     x="6000"
                     class="BoundingBox"
                     style="fill:none;stroke:none" />
                  <text
                     id="text10509"
                     class="TextShape">
                    <tspan
                       id="tspan10511"
                       font-weight="400"
                       font-size="635px"
                       class="TextParagraph"
                       style="font-weight:400;font-size:635px;font-family:'Liberation Sans', sans-serif">
                      <tspan
                         id="tspan10513"
                         y="6513"
                         x="6850"
                         class="TextPosition">
                        <tspan
                           id="tspan10515"
                           style="fill:#000000;stroke:none">UC</tspan>
                      </tspan>
                    </tspan>
                  </text>
                </g>
              </g>
              <g
                 id="g10517"
                 class="com.sun.star.drawing.TextShape">
                <g
                   id="id22">
                  <rect
                     id="rect10520"
                     height="2048"
                     width="6785"
                     y="4683"
                     x="9763"
                     class="BoundingBox"
                     style="fill:none;stroke:none" />
                  <text
                     id="text10522"
                     class="TextShape">
                    <tspan
                       id="tspan10524"
                       font-weight="400"
                       font-size="635px"
                       class="TextParagraph"
                       style="font-weight:400;font-size:635px;font-family:'Liberation Sans', sans-serif">
                      <tspan
                         id="tspan10526"
                         y="5384"
                         x="10613"
                         class="TextPosition">
                        <tspan
                           id="tspan10528"
                           style="fill:#000000;stroke:none">Domain Services</tspan>
                      </tspan>
                    </tspan>
                  </text>
                </g>
              </g>
              <g
                 id="g10530"
                 class="com.sun.star.drawing.TextShape">
                <g
                   id="id23">
                  <rect
                     id="rect10533"
                     height="3952"
                     width="4499"
                     y="8786"
                     x="11471"
                     class="BoundingBox"
                     style="fill:none;stroke:none" />
                  <text
                     id="text10535"
                     class="TextShape">
                    <tspan
                       id="tspan10537"
                       font-weight="400"
                       font-size="635px"
                       class="TextParagraph"
                       style="font-weight:400;font-size:635px;font-family:'Liberation Sans', sans-serif">
                      <tspan
                         id="tspan10539"
                         y="9487"
                         x="12321"
                         class="TextPosition">
                        <tspan
                           id="tspan10541"
                           style="fill:#000000;stroke:none">Asfsaf</tspan>
                      </tspan>
                    </tspan>
                  </text>
                </g>
              </g>
              <g
                 id="g10543"
                 class="com.sun.star.drawing.CustomShape">
                <g
                   id="id24">
                  <rect
                     id="rect10546"
                     height="5397"
                     width="5397"
                     y="6151"
                     x="10293"
                     class="BoundingBox"
                     style="fill:none;stroke:none" />
                  <path
                     id="path10548"
                     d="m 12990,6152 c 1529,0 2697,1167 2697,2696 0,1529 -1168,2697 -2697,2697 -1529,0 -2696,-1168 -2696,-2697 0,-1529 1167,-2696 2696,-2696 z m -2696,0 0,0 z m 5394,5394 0,0 z"
                     style="fill:#4795cc;stroke:none" />
                  <path
                     id="path10550"
                     d="m 12990,6152 c 1529,0 2697,1167 2697,2696 0,1529 -1168,2697 -2697,2697 -1529,0 -2696,-1168 -2696,-2697 0,-1529 1167,-2696 2696,-2696 z"
                     style="fill:none;stroke:#3465a4" />
                  <path
                     id="path10552"
                     d="m 10294,6152 0,0 z"
                     style="fill:none;stroke:#3465a4" />
                  <path
                     id="path10554"
                     d="m 15688,11546 0,0 z"
                     style="fill:none;stroke:#3465a4" />
                </g>
              </g>
              <g
                 id="g10556"
                 class="com.sun.star.drawing.TextShape">
                <g
                   id="id25">
                  <rect
                     id="rect10559"
                     height="1794"
                     width="6224"
                     y="8324"
                     x="10271"
                     class="BoundingBox"
                     style="fill:none;stroke:none" />
                  <text
                     id="text10561"
                     class="TextShape">
                    <tspan
                       id="tspan10563"
                       font-weight="400"
                       font-size="635px"
                       class="TextParagraph"
                       style="font-weight:400;font-size:635px;font-family:'Liberation Sans', sans-serif">
                      <tspan
                         id="tspan10565"
                         y="9025"
                         x="11121"
                         class="TextPosition">
                        <tspan
                           id="tspan10567"
                           style="fill:#ffffff;stroke:none">Domain Model</tspan>
                      </tspan>
                    </tspan>
                  </text>
                </g>
              </g>
              <g
                 id="g10569"
                 class="com.sun.star.drawing.TextShape">
                <g
                   id="id26">
                  <rect
                     id="rect10572"
                     height="1906"
                     width="7166"
                     y="11695"
                     x="9155"
                     class="BoundingBox"
                     style="fill:none;stroke:none" />
                  <text
                     id="text10574"
                     class="TextShape">
                    <tspan
                       id="tspan10576"
                       font-weight="400"
                       font-size="635px"
                       class="TextParagraph"
                       style="font-weight:400;font-size:635px;font-family:'Liberation Sans', sans-serif">
                      <tspan
                         id="tspan10578"
                         y="12396"
                         x="10005"
                         class="TextPosition">
                        <tspan
                           id="tspan10580"
                           style="fill:#000000;stroke:none">Repository Interfaces</tspan>
                      </tspan>
                    </tspan>
                  </text>
                </g>
              </g>
              <path
                 id="rect16997-2"
                 d="m 7950.0445,8625.3716 0,169.0578 -949.799,0 0,91.4465 949.799,0 0,166.3568 725.455,-214.4779 -725.455,-212.3832 z"
                 style="opacity:1;fill:#e9d9c9;fill-opacity:1;fill-rule:nonzero;stroke:#333333;stroke-width:23.48089027;stroke-linecap:round;stroke-linejoin:miter;stroke-miterlimit:4;stroke-dasharray:none;stroke-dashoffset:0;stroke-opacity:1" />
              <path
                 id="rect16997-9-5"
                 d="m 9991.9322,8625.8538 0,169.0578 -949.7987,0 0,91.4465 949.7987,0 0,166.3568 725.4538,-214.4779 -725.4538,-212.3832 z"
                 style="opacity:1;fill:#e9d9c9;fill-opacity:1;fill-rule:nonzero;stroke:#333333;stroke-width:23.48089027;stroke-linecap:round;stroke-linejoin:miter;stroke-miterlimit:4;stroke-dasharray:none;stroke-dashoffset:0;stroke-opacity:1" />
              <path
                 id="rect16997-7-8"
                 d="m 5901.6625,8625.8538 0,169.0578 -949.7993,0 0,91.4465 949.7993,0 0,166.3568 725.454,-214.4779 -725.454,-212.3832 z"
                 style="opacity:1;fill:#e9d9c9;fill-opacity:1;fill-rule:nonzero;stroke:#333333;stroke-width:23.48089027;stroke-linecap:round;stroke-linejoin:miter;stroke-miterlimit:4;stroke-dasharray:none;stroke-dashoffset:0;stroke-opacity:1" />
            </g>
          </g>
        </g>
      </g>
    </g>
  </g>
</svg>
