<?xml version="1.0" encoding="utf-8"?>
<!-- Generator: Adobe Illustrator 19.2.1, SVG Export Plug-In . SVG Version: 6.00 Build 0)  -->
<svg version="1.1" id="Ebene_1" xmlns="http://www.w3.org/2000/svg" xmlns:xlink="http://www.w3.org/1999/xlink" x="0px" y="0px"
	 viewBox="0 0 992.1 992.1" style="enable-background:new 0 0 992.1 992.1;" xml:space="preserve">
<style type="text/css">
	.st0{fill:#FFFFFF;}
</style>
<g>
	<g>
		<path class="st0" d="M157.6,626.6l16.2-52.5h21.3l16.1,52.5l18.1-52.5h22.1l-31.8,91.2h-15.1l-20-63.4l-19.8,63.4h-15.1
			l-31.8-91.2h22.1L157.6,626.6z"/>
		<path class="st0" d="M262.2,574.1h20.4v91.2h-20.4V574.1z"/>
		<path class="st0" d="M305,574.1h20.4v37.5l34.5-37.5H385l-36.3,40.3c3.1,4.4,8.9,12.5,17.4,24.3c8.4,11.9,14.7,20.7,18.9,26.6
			h-23.8l-26.8-36l-9.1,10.2v25.8H305V574.1z"/>
		<path class="st0" d="M397.6,574.1H418v91.2h-20.4V574.1z"/>
		<path class="st0" d="M522.1,607.9l-24.7,49.9h-12.1l-24.5-49.9v57.4h-20.4v-91.2H468l23.5,50.1l23.6-50.1h27.4v91.2h-20.4V607.9z"
			/>
		<path class="st0" d="M630.7,574.1v18.1h-45.4V611h40.8v17.4h-40.8v18.9h46.9v18h-67.2v-91.2H630.7z"/>
		<path class="st0" d="M720,586.1c8.7,8,13.1,19,13.1,33.2c0,14.2-4.2,25.4-12.7,33.7c-8.5,8.3-21.4,12.4-38.8,12.4h-31.2v-91.2
			h32.2C698.8,574.1,711.3,578.1,720,586.1z M705,640.3c5-4.7,7.5-11.5,7.5-20.5c0-9-2.5-15.9-7.5-20.7c-5-4.8-12.7-7.2-23-7.2
			h-11.4v55.5h12.9C692.9,647.3,700,645,705,640.3z"/>
		<path class="st0" d="M750.7,574.1H771v91.2h-20.4V574.1z"/>
		<path class="st0" d="M858.5,665.3l-8.5-19.7h-38.2l-8.5,19.7h-21.7l39.4-91.2h19.7l39.4,91.2H858.5z M830.9,601.3l-11.5,26.5h22.8
			L830.9,601.3z"/>
		<path class="st0" d="M194.3,719.3c3.7,3.3,5.5,7.9,5.5,13.8s-1.8,10.6-5.3,14c-3.6,3.4-9,5.2-16.3,5.2h-12.6v-38h13.1
			C185.4,714.3,190.7,716,194.3,719.3z M193.3,733.3c0-8.7-5-13.1-15-13.1H172v26h7.1c4.6,0,8.1-1.1,10.6-3.3
			C192.1,740.8,193.3,737.6,193.3,733.3z"/>
		<path class="st0" d="M259.6,714.3v6h-20.3v10.1h18.2v5.7h-18.2v10.2h20.9v6h-27.4v-38H259.6z"/>
		<path class="st0" d="M301.9,743.6c1.7,2,4.1,3,7.1,3c3,0,5.3-1,7.1-3s2.6-4.8,2.6-8.3v-21h6.4v21.3c0,5.5-1.5,9.7-4.5,12.6
			c-3,3-6.9,4.4-11.6,4.4c-4.7,0-8.6-1.5-11.6-4.4c-3-3-4.5-7.2-4.5-12.6v-21.3h6.4v21C299.3,738.9,300.1,741.6,301.9,743.6z"/>
		<path class="st0" d="M374.3,720.2v32.1h-6.4v-32.1h-11.5v-5.9h29.5v5.9H374.3z"/>
		<path class="st0" d="M429.2,719.3c-1.9,0-3.4,0.4-4.6,1.1c-1.2,0.8-1.8,1.9-1.8,3.5c0,1.5,0.6,2.7,1.8,3.5
			c1.2,0.8,3.7,1.7,7.6,2.6c3.9,0.9,6.8,2.3,8.8,4c2,1.7,3,4.2,3,7.5c0,3.3-1.3,6-3.8,8.1c-2.5,2.1-5.8,3.1-9.8,3.1
			c-5.9,0-11.2-2-15.8-6.1l4-4.8c3.8,3.3,7.8,5,12,5c2.1,0,3.7-0.4,4.9-1.3c1.2-0.9,1.8-2.1,1.8-3.5c0-1.5-0.6-2.6-1.7-3.4
			c-1.1-0.8-3.1-1.6-5.9-2.2c-2.8-0.7-4.9-1.3-6.4-1.8c-1.5-0.6-2.7-1.3-3.9-2.2c-2.2-1.7-3.4-4.3-3.4-7.8s1.3-6.2,3.8-8.1
			c2.6-1.9,5.7-2.9,9.5-2.9c2.4,0,4.8,0.4,7.2,1.2c2.4,0.8,4.5,1.9,6.2,3.4l-3.4,4.8c-1.1-1-2.6-1.8-4.6-2.5
			C432.9,719.7,431,719.3,429.2,719.3z"/>
		<path class="st0" d="M494.1,746.5c2.2,0,4.1-0.4,5.7-1.1c1.6-0.7,3.3-1.9,5-3.6l4.1,4.2c-4,4.5-8.9,6.7-14.7,6.7
			c-5.7,0-10.5-1.8-14.3-5.5c-3.8-3.7-5.7-8.4-5.7-14s1.9-10.4,5.8-14.1s8.7-5.7,14.6-5.7c5.9,0,10.8,2.2,14.8,6.5l-4.1,4.5
			c-1.8-1.7-3.5-3-5.1-3.6s-3.5-1-5.7-1c-3.8,0-7.1,1.2-9.7,3.7c-2.6,2.5-3.9,5.7-3.9,9.5c0,3.9,1.3,7.1,3.9,9.7
			C487.5,745.2,490.6,746.5,494.1,746.5z"/>
		<path class="st0" d="M541.6,752.3v-38h6.4v16.5h18.9v-16.5h6.4v38h-6.4v-15.6h-18.9v15.6H541.6z"/>
		<path class="st0" d="M608.7,752.3v-38h6.4v31.9h17.3v6.1H608.7z"/>
		<path class="st0" d="M669.8,743.7l-3.8,8.6h-6.9l16.7-38h6.9l16.7,38h-6.9l-3.8-8.6H669.8z M686.2,737.8l-6.9-15.7l-6.9,15.7
			H686.2z"/>
		<path class="st0" d="M758.1,714.3h6.4v38h-7L736,724.6v27.7h-6.4v-38h6.4l22.1,28.4V714.3z"/>
		<path class="st0" d="M828.6,719.3c3.7,3.3,5.5,7.9,5.5,13.8s-1.8,10.6-5.3,14c-3.6,3.4-9,5.2-16.3,5.2h-12.6v-38h13.1
			C819.7,714.3,825,716,828.6,719.3z M827.7,733.3c0-8.7-5-13.1-15-13.1h-6.4v26h7.1c4.6,0,8.1-1.1,10.6-3.3
			C826.4,740.8,827.7,737.6,827.7,733.3z"/>
	</g>
	<g>
		<path class="st0" d="M157.6,626.6l16.2-52.5h21.3l16.1,52.5l18.1-52.5h22.1l-31.8,91.2h-15.1l-20-63.4l-19.8,63.4h-15.1
			l-31.8-91.2h22.1L157.6,626.6z"/>
		<path class="st0" d="M262.2,574.1h20.4v91.2h-20.4V574.1z"/>
		<path class="st0" d="M305,574.1h20.4v37.5l34.5-37.5H385l-36.3,40.3c3.1,4.4,8.9,12.5,17.4,24.3c8.4,11.9,14.7,20.7,18.9,26.6
			h-23.8l-26.8-36l-9.1,10.2v25.8H305V574.1z"/>
		<path class="st0" d="M397.6,574.1H418v91.2h-20.4V574.1z"/>
		<path class="st0" d="M522.1,607.9l-24.7,49.9h-12.1l-24.5-49.9v57.4h-20.4v-91.2H468l23.5,50.1l23.6-50.1h27.4v91.2h-20.4V607.9z"
			/>
		<path class="st0" d="M630.7,574.1v18.1h-45.4V611h40.8v17.4h-40.8v18.9h46.9v18h-67.2v-91.2H630.7z"/>
		<path class="st0" d="M720,586.1c8.7,8,13.1,19,13.1,33.2c0,14.2-4.2,25.4-12.7,33.7c-8.5,8.3-21.4,12.4-38.8,12.4h-31.2v-91.2
			h32.2C698.8,574.1,711.3,578.1,720,586.1z M705,640.3c5-4.7,7.5-11.5,7.5-20.5c0-9-2.5-15.9-7.5-20.7c-5-4.8-12.7-7.2-23-7.2
			h-11.4v55.5h12.9C692.9,647.3,700,645,705,640.3z"/>
		<path class="st0" d="M750.7,574.1H771v91.2h-20.4V574.1z"/>
		<path class="st0" d="M858.5,665.3l-8.5-19.7h-38.2l-8.5,19.7h-21.7l39.4-91.2h19.7l39.4,91.2H858.5z M830.9,601.3l-11.5,26.5h22.8
			L830.9,601.3z"/>
		<path class="st0" d="M194.3,719.3c3.7,3.3,5.5,7.9,5.5,13.8s-1.8,10.6-5.3,14c-3.6,3.4-9,5.2-16.3,5.2h-12.6v-38h13.1
			C185.4,714.3,190.7,716,194.3,719.3z M193.3,733.3c0-8.7-5-13.1-15-13.1H172v26h7.1c4.6,0,8.1-1.1,10.6-3.3
			C192.1,740.8,193.3,737.6,193.3,733.3z"/>
		<path class="st0" d="M259.6,714.3v6h-20.3v10.1h18.2v5.7h-18.2v10.2h20.9v6h-27.4v-38H259.6z"/>
		<path class="st0" d="M301.9,743.6c1.7,2,4.1,3,7.1,3c3,0,5.3-1,7.1-3s2.6-4.8,2.6-8.3v-21h6.4v21.3c0,5.5-1.5,9.7-4.5,12.6
			c-3,3-6.9,4.4-11.6,4.4c-4.7,0-8.6-1.5-11.6-4.4c-3-3-4.5-7.2-4.5-12.6v-21.3h6.4v21C299.3,738.9,300.1,741.6,301.9,743.6z"/>
		<path class="st0" d="M374.3,720.2v32.1h-6.4v-32.1h-11.5v-5.9h29.5v5.9H374.3z"/>
		<path class="st0" d="M429.2,719.3c-1.9,0-3.4,0.4-4.6,1.1c-1.2,0.8-1.8,1.9-1.8,3.5c0,1.5,0.6,2.7,1.8,3.5
			c1.2,0.8,3.7,1.7,7.6,2.6c3.9,0.9,6.8,2.3,8.8,4c2,1.7,3,4.2,3,7.5c0,3.3-1.3,6-3.8,8.1c-2.5,2.1-5.8,3.1-9.8,3.1
			c-5.9,0-11.2-2-15.8-6.1l4-4.8c3.8,3.3,7.8,5,12,5c2.1,0,3.7-0.4,4.9-1.3c1.2-0.9,1.8-2.1,1.8-3.5c0-1.5-0.6-2.6-1.7-3.4
			c-1.1-0.8-3.1-1.6-5.9-2.2c-2.8-0.7-4.9-1.3-6.4-1.8c-1.5-0.6-2.7-1.3-3.9-2.2c-2.2-1.7-3.4-4.3-3.4-7.8s1.3-6.2,3.8-8.1
			c2.6-1.9,5.7-2.9,9.5-2.9c2.4,0,4.8,0.4,7.2,1.2c2.4,0.8,4.5,1.9,6.2,3.4l-3.4,4.8c-1.1-1-2.6-1.8-4.6-2.5
			C432.9,719.7,431,719.3,429.2,719.3z"/>
		<path class="st0" d="M494.1,746.5c2.2,0,4.1-0.4,5.7-1.1c1.6-0.7,3.3-1.9,5-3.6l4.1,4.2c-4,4.5-8.9,6.7-14.7,6.7
			c-5.7,0-10.5-1.8-14.3-5.5c-3.8-3.7-5.7-8.4-5.7-14s1.9-10.4,5.8-14.1s8.7-5.7,14.6-5.7c5.9,0,10.8,2.2,14.8,6.5l-4.1,4.5
			c-1.8-1.7-3.5-3-5.1-3.6s-3.5-1-5.7-1c-3.8,0-7.1,1.2-9.7,3.7c-2.6,2.5-3.9,5.7-3.9,9.5c0,3.9,1.3,7.1,3.9,9.7
			C487.5,745.2,490.6,746.5,494.1,746.5z"/>
		<path class="st0" d="M541.6,752.3v-38h6.4v16.5h18.9v-16.5h6.4v38h-6.4v-15.6h-18.9v15.6H541.6z"/>
		<path class="st0" d="M608.7,752.3v-38h6.4v31.9h17.3v6.1H608.7z"/>
		<path class="st0" d="M669.8,743.7l-3.8,8.6h-6.9l16.7-38h6.9l16.7,38h-6.9l-3.8-8.6H669.8z M686.2,737.8l-6.9-15.7l-6.9,15.7
			H686.2z"/>
		<path class="st0" d="M758.1,714.3h6.4v38h-7L736,724.6v27.7h-6.4v-38h6.4l22.1,28.4V714.3z"/>
		<path class="st0" d="M828.6,719.3c3.7,3.3,5.5,7.9,5.5,13.8s-1.8,10.6-5.3,14c-3.6,3.4-9,5.2-16.3,5.2h-12.6v-38h13.1
			C819.7,714.3,825,716,828.6,719.3z M827.7,733.3c0-8.7-5-13.1-15-13.1h-6.4v26h7.1c4.6,0,8.1-1.1,10.6-3.3
			C826.4,740.8,827.7,737.6,827.7,733.3z"/>
	</g>
</g>
<g>
	<path class="st0" d="M512.9,460.7c48.8-6.9,86.4-48.9,86.4-99.6c0-30.8-13.9-58.4-35.7-76.9l-50.7,50.7V460.7z"/>
	<path class="st0" d="M484.5,460.7V334.9l-50.7-50.7c-21.8,18.5-35.7,46-35.7,76.9C398.1,411.8,435.7,453.8,484.5,460.7z"/>
	<path class="st0" d="M586.1,273.6c23.4,23.3,36.2,54.4,36.2,87.4s-12.9,64.1-36.2,87.4c-23.3,23.3-54.4,36.2-87.4,36.2
		s-64.1-12.9-87.4-36.2s-36.2-54.4-36.2-87.4c0-33,12.9-64.1,36.2-87.4c2-2,4.1-3.9,6.2-5.8l-28.2-28.2c-2.1,1.9-4.1,3.8-6.1,5.8
		c-15,15-26.8,32.5-35,52c-8.5,20.2-12.9,41.6-12.9,63.6c0,22.1,4.3,43.5,12.9,63.6c8.2,19.5,20,37,35,52c15,15,32.5,26.8,52,35
		c20.2,8.5,41.6,12.9,63.6,12.9c22.1,0,43.5-4.3,63.6-12.9c19.5-8.2,37-20,52-35c15-15,26.8-32.5,35-52
		c8.5-20.2,12.9-41.6,12.9-63.6c0-22.1-4.3-43.5-12.9-63.6c-8.2-19.5-20-37-35-52c-2-2-4-3.9-6.1-5.8l-28.2,28.2
		C582.1,269.7,584.1,271.6,586.1,273.6z"/>
	<circle id="red_circle_52_" class="st0" cx="498.7" cy="247.6" r="51"/>
</g>
<g>
	<path class="st0" d="M512.9,460.7c48.8-6.9,86.4-48.9,86.4-99.6c0-30.8-13.9-58.4-35.7-76.9l-50.7,50.7V460.7z"/>
	<path class="st0" d="M484.5,460.7V334.9l-50.7-50.7c-21.8,18.5-35.7,46-35.7,76.9C398.1,411.8,435.7,453.8,484.5,460.7z"/>
	<path class="st0" d="M586.1,273.6c23.4,23.3,36.2,54.4,36.2,87.4s-12.9,64.1-36.2,87.4c-23.3,23.3-54.4,36.2-87.4,36.2
		s-64.1-12.9-87.4-36.2s-36.2-54.4-36.2-87.4c0-33,12.9-64.1,36.2-87.4c2-2,4.1-3.9,6.2-5.8l-28.2-28.2c-2.1,1.9-4.1,3.8-6.1,5.8
		c-15,15-26.8,32.5-35,52c-8.5,20.2-12.9,41.6-12.9,63.6c0,22.1,4.3,43.5,12.9,63.6c8.2,19.5,20,37,35,52c15,15,32.5,26.8,52,35
		c20.2,8.5,41.6,12.9,63.6,12.9c22.1,0,43.5-4.3,63.6-12.9c19.5-8.2,37-20,52-35c15-15,26.8-32.5,35-52
		c8.5-20.2,12.9-41.6,12.9-63.6c0-22.1-4.3-43.5-12.9-63.6c-8.2-19.5-20-37-35-52c-2-2-4-3.9-6.1-5.8l-28.2,28.2
		C582.1,269.7,584.1,271.6,586.1,273.6z"/>
	<circle id="red_circle_46_" class="st0" cx="498.7" cy="247.6" r="51"/>
</g>
</svg>
